<svg width="108" height="31" viewBox="0 0 108 31" fill="none" xmlns="http://www.w3.org/2000/svg">
            <g clip-path="url(#clip0_14061_165012)">
              <path
                d="M30.9434 13.2356L34.4154 4.67773H36.7848L40.21 13.2356H37.9578L37.1837 11.1674H33.8993L33.1251 13.2356H30.9434ZM34.5092 9.47964H36.5502L35.5415 6.74588L34.5092 9.47964Z"
                fill="#202020"
              ></path>
              <path
                d="M41.4062 13.2356V4.67773H45.7229C46.3093 4.67773 46.8255 4.79659 47.2712 5.03431C47.7169 5.27203 48.0688 5.58106 48.3269 6.00895C48.5849 6.41308 48.7022 6.88851 48.7022 7.41149C48.7022 7.95824 48.5615 8.43368 48.2565 8.86157C47.975 9.28946 47.5762 9.59849 47.107 9.83621L48.9603 13.2593H46.6378L45.066 10.1215H43.4942V13.2356H41.4062ZM43.4707 8.40991H45.5117C45.8401 8.40991 46.0982 8.31482 46.2859 8.14842C46.4736 7.95824 46.5909 7.74429 46.5909 7.45903C46.5909 7.17377 46.497 6.93605 46.2859 6.76965C46.0982 6.57948 45.8401 6.50816 45.5117 6.50816H43.4707V8.40991Z"
                fill="#202020"
              ></path>
              <path
                d="M61.6992 13.2356V4.67773H68.4087V6.50816H63.7637V8.10087H66.8604V9.85998H63.7637V13.2356H61.6992Z"
                fill="#202020"
              ></path>
              <path
                d="M79.834 13.2356V4.67773H84.1506C84.7371 4.67773 85.2532 4.79659 85.6989 5.03431C86.1447 5.27203 86.4966 5.58106 86.7546 6.00895C87.0127 6.41308 87.13 6.88851 87.13 7.41149C87.13 7.95824 86.9892 8.43368 86.6843 8.86157C86.4027 9.28946 86.0039 9.59849 85.5347 9.83621L87.388 13.2593H85.0655L83.4937 10.1215H81.9219V13.2356H79.834ZM81.9219 8.40991H83.9629C84.2913 8.40991 84.5494 8.31482 84.7371 8.14842C84.9248 7.95824 85.0421 7.74429 85.0421 7.45903C85.0421 7.17377 84.9482 6.93605 84.7371 6.76965C84.5494 6.57948 84.2913 6.50816 83.9629 6.50816H81.9219V8.40991Z"
                fill="#202020"
              ></path>
              <path
                d="M73.7113 6.38907C75.0954 6.38907 76.2449 7.53012 76.2449 8.95643C76.2449 10.3827 75.1189 11.5238 73.7113 11.5238C72.3272 11.5238 71.1776 10.3827 71.1776 8.95643C71.1776 7.53012 72.3037 6.38907 73.7113 6.38907ZM73.7113 4.41602C71.2246 4.41602 69.2305 6.46039 69.2305 8.95643C69.2305 11.4762 71.248 13.4968 73.7113 13.4968C76.198 13.4968 78.1921 11.4525 78.1921 8.95643C78.1921 6.43662 76.1746 4.41602 73.7113 4.41602Z"
                fill="#202020"
              ></path>
              <path d="M31.7168 26.072V17.5142H33.7813V26.072H31.7168Z" fill="#202020"></path>
              <path
                d="M35.6113 26.072V17.5142H37.5585L41.4059 22.4825V17.5142H43.4703V26.072H41.5232L37.5585 20.9135V26.072H35.6113Z"
                fill="#202020"
              ></path>
              <path
                d="M47.7175 26.072V19.3684H44.9492V17.5142H52.5502V19.3684H49.7819V26.072H47.7175Z"
                fill="#202020"
              ></path>
              <path
                d="M54.0273 26.072V17.5142H58.3439C58.9304 17.5142 59.4465 17.633 59.8923 17.8707C60.338 18.1085 60.6899 18.4175 60.948 18.8454C61.206 19.2495 61.3233 19.7249 61.3233 20.2479C61.3233 20.7947 61.1826 21.2701 60.8776 21.698C60.5961 22.1259 60.1973 22.4349 59.7281 22.6726L61.5814 26.0958H59.2589L57.6871 22.9579H56.1153V26.072H54.0273ZM56.1153 21.2463H58.1563C58.4847 21.2463 58.7428 21.1512 58.9304 20.9848C59.1181 20.7947 59.2354 20.5807 59.2354 20.2955C59.2354 20.0102 59.1416 19.7725 58.9304 19.6061C58.7428 19.4159 58.4847 19.3446 58.1563 19.3446H56.1153V21.2463Z"
                fill="#202020"
              ></path>
              <path
                d="M75.1654 26.072L71.7402 17.5142H73.9924L76.3853 23.885L78.8485 17.5142H81.0068L77.5348 26.072H75.1654Z"
                fill="#202020"
              ></path>
              <path
                d="M82.1797 26.072V17.5142H88.8423V19.3446H84.2441V20.8898H87.2704V22.6489H84.2441V24.2653H88.8892V26.0958H82.1797V26.072Z"
                fill="#202020"
              ></path>
              <path
                d="M90.9531 26.072V17.5142H95.2697C95.8562 17.5142 96.3723 17.633 96.8181 17.8707C97.2638 18.1085 97.6157 18.4175 97.8738 18.8454C98.1318 19.2495 98.2491 19.7249 98.2491 20.2479C98.2491 20.7947 98.1084 21.2701 97.8034 21.698C97.5219 22.1259 97.1231 22.4349 96.6539 22.6726L98.5072 26.0958H96.2081L94.6129 22.9579H93.041V26.072H90.9531ZM93.041 21.2463H95.0821C95.4105 21.2463 95.6686 21.1512 95.8562 20.9848C96.0439 20.7947 96.1612 20.5807 96.1612 20.2955C96.1612 20.0102 96.0674 19.7725 95.8562 19.6061C95.6686 19.4159 95.4105 19.3446 95.0821 19.3446H93.041V21.2463Z"
                fill="#202020"
              ></path>
              <path
                d="M102.19 26.072V19.3684H99.4219V17.5142H107.023V19.3684H104.255V26.072H102.19Z"
                fill="#202020"
              ></path>
              <path
                d="M66.9535 19.226C68.3376 19.226 69.4871 20.367 69.4871 21.7933C69.4871 23.1959 68.3611 24.3607 66.9535 24.3607C65.5693 24.3607 64.4198 23.2197 64.4198 21.7933C64.4198 20.367 65.5459 19.226 66.9535 19.226ZM66.9535 17.2529C64.4667 17.2529 62.4727 19.2973 62.4727 21.7933C62.4727 24.2894 64.4902 26.3338 66.9535 26.3338C69.4402 26.3338 71.4343 24.2894 71.4343 21.7933C71.4343 19.2973 69.4167 17.2529 66.9535 17.2529Z"
                fill="#202020"
              ></path>
              <path
                d="M52.6198 13.2356V6.53193H49.8516V4.67773H57.4525V6.53193H54.6843V13.2356H52.6198Z"
                fill="#202020"
              ></path>
              <path
                d="M24.938 0.375C26.3456 0.375 27.4951 1.53982 27.4951 2.96613C27.4951 4.39243 26.3456 5.55725 24.938 5.55725C23.5304 5.55725 22.3809 4.39243 22.3809 2.96613C22.3809 1.53982 23.5304 0.375 24.938 0.375Z"
                fill="#FFDB3C"
              ></path>
              <path
                d="M12.6917 2.56182C5.7007 2.56182 0.0234375 8.31459 0.0234375 15.3986C0.0234375 22.4826 5.7007 28.2354 12.6917 28.2354C19.6827 28.2354 25.36 22.4826 25.36 15.3986C25.3131 8.26705 19.6358 2.51427 12.6917 2.56182ZM12.6917 23.0056C8.53933 23.0056 5.16113 19.5824 5.16113 15.3748C5.16113 11.1672 8.51587 7.74407 12.6917 7.74407C16.8676 7.74407 20.1988 11.1672 20.1988 15.3748C20.1988 19.5824 16.8441 23.0056 12.6917 23.0056Z"
                fill="#FFDB3C"
              ></path>
              <path
                d="M25.3358 15.3748C25.3124 8.26705 19.6351 2.51427 12.691 2.56182C11.3773 2.56182 10.1339 2.75199 8.93744 3.13234L6.94336 10.4541C8.32749 8.79003 10.3919 7.74407 12.691 7.74407C16.8434 7.74407 20.2216 11.1672 20.2216 15.3748C20.2216 17.0388 19.7055 18.5602 18.814 19.8201L25.3358 15.7314C25.3358 15.6125 25.3358 15.4937 25.3358 15.3748Z"
                fill="#E6A500"
              ></path>
            </g>
            <defs>
              <clipPath id="clip0_14061_165012">
                <rect width="107" height="30" fill="white" transform="translate(0.0234375 0.375)"></rect>
              </clipPath>
            </defs>
          </svg>